HIERARCHY
ROOT SpineBase
{
  OFFSET 0.000000 0.000000 0.000000
  CHANNELS 6 Xposition Yposition Zposition Zrotation Xrotation Yrotation
  JOINT SpineMid
  {
    OFFSET 0.000000 28.124747 0.000000
    CHANNELS 3 Zrotation Xrotation Yrotation
    JOINT SpineShoulder
    {
      OFFSET 0.017857 20.923424 -0.691620
      CHANNELS 3 Zrotation Xrotation Yrotation
      JOINT Neck
      {
        OFFSET -0.011255 6.942102 -0.526239
        CHANNELS 3 Zrotation Xrotation Yrotation
        JOINT Head
        {
          OFFSET -1.599247 11.338000 -0.058314
          CHANNELS 3 Zrotation Xrotation Yrotation
          End Site
          {
            OFFSET 0 0 0
          }
        }
      }
      JOINT ShoulderLeft
      {
        OFFSET -16.809889 -1.921576 4.450110
        CHANNELS 3 Zrotation Xrotation Yrotation
        JOINT ElbowLeft
        {
          OFFSET -3.582490 -24.803941 1.975090
          CHANNELS 3 Zrotation Xrotation Yrotation
          JOINT WristLeft
          {
            OFFSET -0.978080 -21.127815 -4.616803
            CHANNELS 3 Zrotation Xrotation Yrotation
            JOINT HandLeft
            {
              OFFSET 0.314965 -6.849407 -2.051006
              CHANNELS 3 Zrotation Xrotation Yrotation
              JOINT HandTipLeft
              {
                OFFSET -1.027212 -6.534593 -1.868485
                CHANNELS 3 Zrotation Xrotation Yrotation
                End Site
                {
                  OFFSET 0 0 0
                }
              }
              JOINT ThumbLeft
              {
                OFFSET 3.516048 0.055800 -2.993505
                CHANNELS 3 Zrotation Xrotation Yrotation
                End Site
                {
                  OFFSET 0 0 0
                }
              }
            }
          }
        }
      }
      JOINT ShoulderRight
      {
        OFFSET 15.194569 -2.674398 -4.774073
        CHANNELS 3 Zrotation Xrotation Yrotation
        JOINT ElbowRight
        {
          OFFSET 5.883958 -24.602242 -1.421252
          CHANNELS 3 Zrotation Xrotation Yrotation
          JOINT WristRight
          {
            OFFSET 0.797988 -18.181021 -4.857759
            CHANNELS 3 Zrotation Xrotation Yrotation
            JOINT HandRight
            {
              OFFSET -1.618099 -7.767802 -0.664728
              CHANNELS 3 Zrotation Xrotation Yrotation
              JOINT HandTipRight
              {
                OFFSET -0.477836 -5.717524 -2.616236
                CHANNELS 3 Zrotation Xrotation Yrotation
                End Site
                {
                  OFFSET 0 0 0
                }
              }
              JOINT ThumbRight
              {
                OFFSET 1.209253 -3.086336 -2.978765
                CHANNELS 3 Zrotation Xrotation Yrotation
                End Site
                {
                  OFFSET 0 0 0
                }
              }
            }
          }
        }
      }
    }
  }
  JOINT HipLeft
  {
    OFFSET -5.621191 0.445852 -1.874135
    CHANNELS 3 Zrotation Xrotation Yrotation
    JOINT KneeLeft
    {
      OFFSET -3.355699 -29.244302 6.251180
      CHANNELS 3 Zrotation Xrotation Yrotation
      JOINT AnkleLeft
      {
        OFFSET 1.685099 -37.153065 7.168871
        CHANNELS 3 Zrotation Xrotation Yrotation
        JOINT FootLeft
        {
          OFFSET -1.076009 -8.041130 -4.952176
          CHANNELS 3 Zrotation Xrotation Yrotation
          End Site
          {
            OFFSET 0 0 0
          }
        }
      }
    }
  }
  JOINT HipRight
  {
    OFFSET 5.152071 0.826630 -4.549257
    CHANNELS 3 Zrotation Xrotation Yrotation
    JOINT KneeRight
    {
      OFFSET 2.836434 -28.322569 3.808885
      CHANNELS 3 Zrotation Xrotation Yrotation
      JOINT AnkleRight
      {
        OFFSET 3.086094 -42.327979 6.947878
        CHANNELS 3 Zrotation Xrotation Yrotation
        JOINT FootRight
        {
          OFFSET -4.220035 -4.111624 -8.644415
          CHANNELS 3 Zrotation Xrotation Yrotation
          End Site
          {
            OFFSET 0 0 0
          }
        }
      }
    }
  }
}
MOTION
Frames: 12
Frame Time: 0.033333
29.098097 76.908839 374.071791 -0.000000 0.000000 13.945139 0.000000 0.000000 -13.945139 -0.000000 0.000000 0.000000 -0.000000 0.000000 0.000000 0.000000 0.000000 0.000000 -0.000000 0.000000 0.000000 -0.000000 0.000000 0.000000 -0.000000 0.000000 0.000000 -0.000000 0.000000 0.000000 0.000000 0.000000 0.000000 0.000000 0.000000 0.000000 -0.000000 0.000000 0.000000 -0.000000 0.000000 0.000000 -0.000000 0.000000 0.000000 -0.000000 0.000000 0.000000 0.000000 0.000000 0.000000 0.000000 0.000000 0.000000 0.000000 0.000000 -13.945139 -0.000000 0.000000 0.000000 -0.000000 0.000000 0.000000 0.000000 0.000000 0.000000 0.000000 0.000000 -13.945139 -0.000000 0.000000 0.000000 -0.000000 0.000000 0.000000 0.000000 0.000000 0.000000
29.091048 76.933868 374.039359 -0.089381 0.036050 13.987320 0.078017 -0.056585 -13.987253 -0.000000 0.000000 0.000000 -0.000000 0.000000 0.000000 0.000000 0.000000 0.000000 -0.000000 0.000000 0.000000 -0.000000 0.000000 0.000000 -0.000000 0.000000 0.000000 -0.807697 0.429242 0.166143 0.000000 0.000000 0.000000 0.000000 0.000000 0.000000 -0.000000 0.000000 0.000000 -0.000000 0.000000 0.000000 -0.000000 0.000000 0.000000 -0.000000 0.000000 0.000000 0.000000 0.000000 0.000000 0.000000 0.000000 0.000000 0.078017 -0.056585 -13.987253 -0.000000 0.000000 0.000000 -3.240527 14.004825 0.473345 0.000000 0.000000 0.000000 1.023871 0.261323 -13.822072 -0.852971 -1.629029 -0.251843 3.662698 -10.418435 6.020166 0.000000 0.000000 0.000000
29.087744 76.954198 374.005765 -0.172342 0.064092 14.027086 0.151669 -0.103953 -14.026852 -0.000000 0.000000 0.000000 -0.000000 0.000000 0.000000 0.000000 0.000000 0.000000 -0.000000 0.000000 0.000000 -0.000000 0.000000 0.000000 0.093218 0.860481 0.010931 -1.506621 -0.032448 0.249655 0.000000 0.000000 0.000000 0.000000 0.000000 0.000000 -0.000000 0.000000 0.000000 -0.000000 0.000000 0.000000 -1.334024 -0.365106 0.185569 1.980168 -0.437872 -0.424231 0.000000 0.000000 0.000000 0.000000 0.000000 0.000000 0.151669 -0.103953 -14.026852 0.681812 -0.882741 0.096605 -6.456667 24.302208 1.395578 0.000000 0.000000 0.000000 1.906210 0.508785 -13.722008 -1.613294 -3.047241 -0.481701 8.283468 -19.448823 11.992556 0.000000 0.000000 0.000000
29.088184 76.969829 373.971008 -0.248870 0.084125 14.064437 0.220967 -0.142081 -14.063980 -0.000000 0.000000 0.000000 -0.000000 0.000000 0.000000 0.000000 0.000000 0.000000 -0.000000 0.000000 0.000000 -0.294705 -0.811893 0.100039 0.474071 1.991035 -0.106925 -1.989993 0.015984 0.307244 0.000000 0.000000 0.000000 0.000000 0.000000 0.000000 -0.000000 0.000000 0.000000 -0.000000 0.000000 0.000000 -1.772764 -0.553937 0.257812 2.535287 -0.510477 -0.538442 0.000000 0.000000 0.000000 0.000000 0.000000 0.000000 0.220967 -0.142081 -14.063980 0.896175 -1.148528 0.129517 -8.594133 30.271710 2.399869 0.000000 0.000000 0.000000 2.646808 0.741854 -13.644216 -2.277904 -4.257405 -0.688314 12.766163 -25.786533 16.855555 0.000000 0.000000 0.000000
29.092370 76.980761 373.935089 -0.318952 0.096150 14.099356 0.285922 -0.170950 -14.098662 -0.000000 0.000000 0.000000 -0.000000 0.000000 0.000000 0.000000 0.000000 0.000000 -0.000000 0.000000 0.000000 -0.387220 -1.008548 0.128123 0.674797 2.426720 -0.162499 -2.290099 0.113507 0.323789 0.000000 0.000000 0.000000 0.000000 0.000000 0.000000 -0.000000 0.000000 0.000000 -0.000000 0.000000 0.000000 -2.060753 -0.746722 0.317475 2.805850 -0.485137 -0.587849 0.000000 0.000000 0.000000 0.000000 0.000000 0.000000 0.285922 -0.170950 -14.098662 1.027002 -1.299149 0.150498 -10.069562 33.354836 3.237723 0.000000 0.000000 0.000000 3.245336 0.960164 -13.587998 -2.844109 -5.261483 -0.870218 16.038790 -29.299403 19.672541 0.000000 0.000000 0.000000
29.100301 76.986993 373.898006 -0.382581 0.100172 14.131819 0.346547 -0.190547 -14.130909 -0.000000 0.000000 0.000000 -0.827323 0.263112 0.034793 0.000000 0.000000 0.000000 -0.000000 0.000000 0.000000 -0.478350 -1.171386 0.154183 0.896896 2.745921 -0.228327 -2.404780 0.262484 0.300564 0.000000 0.000000 0.000000 0.000000 0.000000 0.000000 -0.878486 -0.294222 -0.021916 0.878385 0.294523 0.017403 -2.198523 -0.943466 0.365390 2.794602 -0.362103 -0.571732 0.000000 0.000000 0.000000 0.000000 0.000000 0.000000 0.346547 -0.190547 -14.130909 1.075867 -1.337152 0.159079 -10.899215 34.099365 3.800127 0.000000 0.000000 0.000000 3.701224 1.163476 -13.552709 -3.309536 -6.060377 -1.025795 17.487486 -30.318845 19.930780 0.000000 0.000000 0.000000
29.109313 76.972856 373.864482 -0.447103 0.077074 14.228625 0.414445 -0.184601 -14.227656 -0.000000 0.000000 0.000000 -0.837252 0.270994 0.035936 0.000000 0.000000 0.000000 -0.000000 0.000000 0.000000 -0.452864 -1.390189 0.158215 0.890979 4.023893 -0.195875 -1.665022 -2.501981 0.273190 0.000000 0.000000 0.000000 0.000000 0.000000 0.000000 -1.051452 -0.340174 -0.023792 1.051329 0.340553 0.017546 -2.173118 -0.604334 0.299365 2.220591 -0.350383 -0.265842 0.000000 0.000000 0.000000 0.000000 0.000000 0.000000 0.414445 -0.184601 -14.227656 1.074963 -1.126627 0.166508 -9.952164 28.587372 3.387321 0.000000 0.000000 0.000000 3.355657 1.147106 -13.711108 -2.770947 -6.073759 -0.927998 15.119151 -26.489305 12.324359 0.000000 0.000000 0.000000
29.114593 76.971645 373.814367 -0.499802 0.065753 14.251350 0.468236 -0.186765 -14.250300 -0.000000 0.000000 0.000000 -0.801205 0.236040 0.030854 0.000000 0.000000 0.000000 -0.000000 0.000000 0.000000 -0.648446 -1.350215 0.197022 1.207375 4.610015 -0.252808 -2.131195 0.095832 -0.119890 0.000000 0.000000 0.000000 0.000000 0.000000 0.000000 -1.215074 -0.394974 -0.028534 1.214906 0.395491 0.020152 -2.124578 -0.720977 0.317593 2.128704 0.708695 -0.344129 0.000000 0.000000 0.000000 0.000000 0.000000 0.000000 0.468236 -0.186765 -14.250300 0.877687 -0.887230 0.135662 -8.003049 22.517718 2.503801 0.000000 0.000000 0.000000 3.594955 1.327904 -13.699628 -3.224173 -6.451021 -1.063122 11.933883 -19.853287 6.206538 0.000000 0.000000 0.000000
29.137368 76.972203 373.777989 -0.536657 0.047417 14.248753 0.508478 -0.178043 -14.247741 -0.000000 0.000000 0.000000 -0.787339 0.287505 0.038517 0.000000 0.000000 0.000000 -0.000000 0.000000 0.000000 -0.907189 -1.341672 0.250280 2.070477 2.656037 -0.594198 -2.617202 3.022309 0.024246 0.000000 0.000000 0.000000 0.000000 0.000000 0.000000 -1.346626 -0.450560 -0.035363 2.136071 0.248162 -0.199992 -2.558504 -1.135745 0.634639 1.783287 1.315906 -0.448234 0.000000 0.000000 0.000000 0.000000 0.000000 0.000000 0.508478 -0.178043 -14.247741 0.613582 -0.711035 0.089823 -8.615383 27.192214 2.797769 0.000000 0.000000 0.000000 3.856594 1.487876 -13.660126 -3.765417 -6.796794 -1.215664 10.433898 -14.891885 1.842273 0.000000 0.000000 0.000000
29.168824 76.971425 373.740362 -0.561664 0.036457 14.224490 0.535487 -0.173349 -14.223501 -0.000000 0.000000 0.000000 -0.000000 0.000000 0.000000 0.000000 0.000000 0.000000 -0.000000 0.000000 0.000000 -1.081840 -1.160747 0.279682 2.407071 2.741242 -0.663908 -2.588081 3.647657 -0.137358 0.000000 0.000000 0.000000 0.000000 0.000000 0.000000 -1.458297 -0.528099 -0.048937 2.333821 0.311173 -0.214572 -2.393216 -1.409481 0.696148 1.536737 1.605192 -0.488216 0.000000 0.000000 0.000000 0.000000 0.000000 0.000000 0.535487 -0.173349 -14.223501 -0.000000 0.000000 0.000000 -8.022528 21.258422 3.180743 0.000000 0.000000 0.000000 4.121226 1.709396 -13.594805 -4.305653 -6.827759 -1.350703 9.188683 -11.271095 0.090210 0.000000 0.000000 0.000000
29.199588 76.973730 373.713320 -0.608542 0.032783 14.253946 0.581738 -0.181605 -14.252850 -0.000000 0.000000 0.000000 -0.000000 0.000000 0.000000 0.000000 0.000000 0.000000 -0.000000 0.000000 0.000000 -1.247337 -0.885849 0.304303 3.078151 0.402059 -0.913296 -2.641423 3.870173 0.291523 0.000000 0.000000 0.000000 0.000000 0.000000 0.000000 -1.536713 -0.583602 -0.058830 2.469206 0.333376 -0.224689 -2.057999 -1.523152 0.714333 1.146565 1.756679 -0.482028 0.000000 0.000000 0.000000 0.000000 0.000000 0.000000 0.581738 -0.181605 -14.252850 -0.000000 0.000000 0.000000 -8.167229 19.448023 3.418120 0.000000 0.000000 0.000000 4.430083 1.891089 -13.580536 -4.658626 -7.273675 -1.471853 10.026356 -12.645565 0.610017 0.000000 0.000000 0.000000
29.242875 76.970318 373.711141 -0.637783 0.019067 14.282203 0.613369 -0.175814 -14.281156 -0.000000 0.000000 0.000000 -0.000000 0.000000 0.000000 0.000000 0.000000 0.000000 -0.000000 0.000000 0.000000 -1.279545 -0.634892 0.302126 3.516962 -1.643926 -1.077040 -1.964158 4.985398 0.275035 0.000000 0.000000 0.000000 0.000000 0.000000 0.000000 -1.586092 -0.624086 -0.066507 2.529176 0.319637 -0.224217 -1.376881 -2.635115 0.909985 -0.341255 1.315420 -0.126958 0.000000 0.000000 0.000000 0.000000 0.000000 0.000000 0.613369 -0.175814 -14.281156 -0.000000 0.000000 0.000000 -6.036879 19.642305 1.897034 0.000000 0.000000 0.000000 4.610096 2.146345 -13.581033 -5.076092 -7.505422 -1.608716 8.712690 -6.795899 -3.715646 0.000000 0.000000 0.000000
